<svg viewBox="669.9999 330.0657 190.0001 190" width="62" height="61.99996736843822" xmlns="http://www.w3.org/2000/svg" xmlns:xlink="http://www.w3.org/1999/xlink" preserveAspectRatio="none"><defs></defs><style>.aLgOaV3zRcolors-0eJDhSgRVb {fill:#0C0C0C;fill-opacity:1;}.aLgOaV3zRcolors-1eJDhSgRVb {fill:#DFDFDF;fill-opacity:1;}.aLgOaV3zRcolors-2eJDhSgRVb {fill:#929292;fill-opacity:1;}.aLgOaV3zRcolors-3eJDhSgRVb {fill:#D7D6D6;fill-opacity:1;}.aLgOaV3zRcolors-4eJDhSgRVb {fill:#C0C0C0;fill-opacity:1;}.aLgOaV3zRcolors-5eJDhSgRVb {fill:#6D6D6D;fill-opacity:1;}.aLgOaV3zRcolors-6eJDhSgRVb {fill:#454545;fill-opacity:1;}.aLgOaV3zRcolors-7eJDhSgRVb {fill:#282828;fill-opacity:1;}</style><g opacity="1" transform="rotate(0 669.9999 330.0657)">
<svg width="190.0001" height="190" x="669.9999" y="330.0657" version="1.1" preserveAspectRatio="none" viewBox="0 0 80 80">
  <g transform="matrix(1 0 0 1 0 0)" class="aLgOaV3zRcolors-0eJDhSgRVb"><g transform="translate(0,-972.36214)"><path style="" d="M 40 0 A 40 40 0 0 0 0 40 A 40 40 0 0 0 40 80 A 40 40 0 0 0 80 40 A 40 40 0 0 0 40 0 z M 41.5 16 C 42.322505 16 43 16.67749 43 17.5 C 43 18.14684 42.579028 18.69777 42 18.90625 L 42 21.236328 L 38.986328 23.736328 L 38.996094 32 L 41.001953 32 L 41.027344 24.744141 L 45.025391 21.75 C 45.011191 21.66779 45 21.586 45 21.5 C 45 20.6775 45.677495 20 46.5 20 C 47.322505 20 48 20.6775 48 21.5 C 48 22.3225 47.322505 23 46.5 23 C 46.127158 23 45.789041 22.85383 45.525391 22.625 L 42.027344 25.246094 L 42.001953 32 L 45 32 L 45 26.259766 L 50 22.259766 L 50 19.90625 C 49.420985 19.69777 49.000026 19.14681 49 18.5 C 49 17.67749 49.677495 17 50.5 17 C 51.322505 17 52 17.67749 52 18.5 C 51.999974 19.14681 51.579015 19.69777 51 19.90625 L 51 22.740234 L 46 26.740234 L 46 32 L 48 32 L 48 27.650391 L 52.013672 24.638672 C 52.009202 24.592102 52 24.5477 52 24.5 C 52 23.6775 52.677495 23 53.5 23 C 54.322505 23 55 23.6775 55 24.5 C 55 25.3225 54.322505 26 53.5 26 C 53.092651 26 52.720749 25.832123 52.449219 25.564453 L 49 28.150391 L 49 32 L 57.5 32 C 58.876351 32 60 33.1237 60 34.5 L 60 57 L 63.5 57 A 0.50005 0.50005 0 0 1 64 57.5 L 64 59.5 C 64 61.4304 62.430351 63 60.5 63 L 19.5 63 C 17.569649 63 16 61.4304 16 59.5 L 16 57.5 A 0.50005 0.50005 0 0 1 16.5 57 L 20 57 L 20 34.5 C 20 33.1237 21.123649 32 22.5 32 L 30.5 32 L 30.5 28.150391 L 27.308594 25.757812 C 27.074356 25.909703 26.797249 26 26.5 26 C 25.677495 26 25 25.3225 25 24.5 C 25 23.6775 25.677495 23 26.5 23 C 27.322505 23 28 23.6775 28 24.5 C 28 24.66274 27.966859 24.815631 27.917969 24.962891 L 31.5 27.650391 L 31.5 32 L 34 32 L 34 26.740234 L 29 22.740234 L 29 19.90625 C 28.420985 19.69777 28.000026 19.14681 28 18.5 C 28 17.67749 28.677495 17 29.5 17 C 30.322505 17 31 17.67749 31 18.5 C 30.999974 19.14681 30.579015 19.69777 30 19.90625 L 30 22.259766 L 35 26.259766 L 35 32 L 37.996094 32 L 37.986328 23.267578 L 41 20.767578 L 41 18.90625 C 40.420972 18.69777 40 18.14684 40 17.5 C 40 16.67749 40.677495 16 41.5 16 z M 41.5 17 C 41.217935 17 41 17.21793 41 17.5 C 41 17.78206 41.217935 18 41.5 18 C 41.782065 18 42 17.78206 42 17.5 C 42 17.21793 41.782065 17 41.5 17 z M 29.5 18 C 29.217935 18 29 18.21793 29 18.5 C 29.000011 18.78207 29.217944 19 29.5 19 C 29.782056 19 29.999989 18.78207 30 18.5 C 30 18.21793 29.782065 18 29.5 18 z M 50.5 18 C 50.217935 18 50 18.21793 50 18.5 C 50.000011 18.78207 50.217944 19 50.5 19 C 50.782056 19 50.999989 18.78207 51 18.5 C 51 18.21793 50.782065 18 50.5 18 z M 46.5 21 C 46.217935 21 46 21.218 46 21.5 C 46 21.7821 46.217935 22 46.5 22 C 46.782065 22 47 21.7821 47 21.5 C 47 21.218 46.782065 21 46.5 21 z M 26.5 24 C 26.217935 24 26 24.218 26 24.5 C 26 24.7821 26.217935 25 26.5 25 C 26.782065 25 27 24.7821 27 24.5 C 27 24.218 26.782065 24 26.5 24 z M 53.5 24 C 53.217935 24 53 24.218 53 24.5 C 53 24.7821 53.217935 25 53.5 25 C 53.782065 25 54 24.7821 54 24.5 C 54 24.218 53.782065 24 53.5 24 z M 22.5 33 C 21.660351 33 21 33.6604 21 34.5 L 21 57 L 59 57 L 59 34.5 C 59 33.6604 58.339649 33 57.5 33 L 22.5 33 z M 23.5 35 L 56.5 35 A 0.50005 0.50005 0 0 1 57 35.5 L 57 54.5 A 0.50005 0.50005 0 0 1 56.5 55 L 23.5 55 A 0.50005 0.50005 0 0 1 23 54.5 L 23 35.5 A 0.50005 0.50005 0 0 1 23.5 35 z M 24 36 L 24 54 L 56 54 L 56 36 L 49.041016 36 L 49.041016 38.75 L 52.599609 41.310547 C 52.851722 41.118547 53.161892 41 53.5 41 C 54.322505 41 55 41.6775 55 42.5 C 55 43.3225 54.322505 44 53.5 44 C 52.677495 44 52 43.3225 52 42.5 C 52 42.383 52.017069 42.269756 52.042969 42.160156 L 48 39.25 L 48 36 L 46 36 L 46 40.640625 L 51 44.140625 L 51 47.091797 C 51.579028 47.300297 52 47.8532 52 48.5 C 52 49.3225 51.322505 50 50.5 50 C 49.677495 50 49 49.3225 49 48.5 C 49 47.8532 49.420972 47.300297 50 47.091797 L 50 44.660156 L 45 41.160156 L 45 36 L 42.025391 36 L 42.001953 44.265625 L 45.013672 46.763672 L 45.013672 49.095703 C 45.58581 49.307903 46 49.8582 46 50.5 C 46 51.3225 45.322505 52 44.5 52 C 43.677495 52 43 51.3225 43 50.5 C 43 49.8482 43.42778 49.292591 44.013672 49.087891 L 44.013672 47.234375 L 41 44.734375 L 41.025391 36 L 38.990234 36 L 39 43.759766 L 35.923828 46.054688 C 35.968728 46.196388 36 46.3444 36 46.5 C 36 47.3225 35.322505 48 34.5 48 C 33.677495 48 33 47.3225 33 46.5 C 33 45.6775 33.677495 45 34.5 45 C 34.805348 45 35.089992 45.094406 35.328125 45.253906 L 38 43.257812 L 37.990234 36 L 35 36 L 35 40.740234 L 30 44.740234 L 30 47.091797 C 30.579028 47.300297 31 47.8532 31 48.5 C 31 49.3225 30.322505 50 29.5 50 C 28.677495 50 28 49.3225 28 48.5 C 28 47.8532 28.420972 47.300297 29 47.091797 L 29 44.259766 L 34 40.259766 L 34 36 L 31.5 36 L 31.5 39.351562 L 27.917969 42.037109 C 27.966509 42.183909 28 42.338 28 42.5 C 28 43.3225 27.322505 44 26.5 44 C 25.677495 44 25 43.3225 25 42.5 C 25 41.6775 25.677495 41 26.5 41 C 26.798225 41 27.075831 41.091341 27.310547 41.244141 L 30.5 38.851562 L 30.5 36 L 24 36 z M 26.5 42 C 26.217935 42 26 42.218 26 42.5 C 26 42.7821 26.217935 43 26.5 43 C 26.782065 43 27 42.7821 27 42.5 C 27 42.218 26.782065 42 26.5 42 z M 53.5 42 C 53.217935 42 53 42.218 53 42.5 C 53 42.7821 53.217935 43 53.5 43 C 53.782065 43 54 42.7821 54 42.5 C 54 42.218 53.782065 42 53.5 42 z M 34.5 46 C 34.217935 46 34 46.218 34 46.5 C 34 46.7821 34.217935 47 34.5 47 C 34.782065 47 35 46.7821 35 46.5 C 35 46.218 34.782065 46 34.5 46 z M 29.5 48 C 29.217935 48 29 48.218 29 48.5 C 29 48.7821 29.217935 49 29.5 49 C 29.782065 49 30 48.7821 30 48.5 C 30 48.218 29.782065 48 29.5 48 z M 50.5 48 C 50.217935 48 50 48.218 50 48.5 C 50 48.7821 50.217935 49 50.5 49 C 50.782065 49 51 48.7821 51 48.5 C 51 48.218 50.782065 48 50.5 48 z M 44.5 50 C 44.217935 50 44 50.218 44 50.5 C 44 50.7821 44.217935 51 44.5 51 C 44.782065 51 45 50.7821 45 50.5 C 45 50.218 44.782065 50 44.5 50 z M 46.949219 57.998047 C 46.715328 59.135247 45.704307 59.998047 44.5 59.998047 L 36.5 59.998047 C 35.295693 59.998047 34.284672 59.1371 34.050781 58 L 17 58 L 17 59.498047 C 17 60.891747 18.106351 61.998047 19.5 61.998047 L 60.5 61.998047 C 61.893649 61.998047 63 60.891747 63 59.498047 L 63 57.998047 L 46.949219 57.998047 z M 35.205078 58 C 35.421948 58.5581 35.857311 59 36.5 59 L 44.5 59 C 45.142689 59 45.578052 58.5581 45.794922 58 L 35.205078 58 z " transform="translate(0,972.36214)" fill-rule="evenodd"></path></g></g>
</svg>
</g></svg>